{
	"asset":{
		"generator":"Khronos glTF Blender I/O v3.6.27",
		"version":"2.0"
	},
	"extensionsUsed":[
		"KHR_materials_specular",
		"KHR_materials_ior"
	],
	"scene":0,
	"scenes":[
		{
			"name":"Scene",
			"nodes":[
				0,
				1
			]
		}
	],
	"nodes":[
		{
			"mesh":0,
			"name":"TQ_ARD-node",
			"rotation":[
				0.7071068286895752,
				0,
				0,
				0.7071068286895752
			],
			"translation":[
				-7.710562204010785e-05,
				0.1274968832731247,
				0.22829347848892212
			]
		},
		{
			"mesh":1,
			"name":"TQ_ARD-node.001",
			"rotation":[
				0.7071068286895752,
				0,
				0,
				0.7071068286895752
			],
			"translation":[
				0.27334463596343994,
				0.12695635855197906,
				-0.015058253891766071
			]
		}
	],
	"materials":[
		{
			"doubleSided":true,
			"extensions":{
				"KHR_materials_specular":{
					"specularColorFactor":[
						0,
						0,
						0
					]
				},
				"KHR_materials_ior":{
					"ior":0
				}
			},
			"name":"TQ_ARD_front",
			"pbrMetallicRoughness":{
				"baseColorTexture":{
					"index":0
				},
				"metallicFactor":0,
				"roughnessFactor":0.5
			}
		},
		{
			"doubleSided":true,
			"extensions":{
				"KHR_materials_specular":{
					"specularColorFactor":[
						0,
						0,
						0
					]
				},
				"KHR_materials_ior":{
					"ior":0
				}
			},
			"name":"TQ_ARD_back",
			"pbrMetallicRoughness":{
				"baseColorFactor":[
					0.5135036706924438,
					0.3893338441848755,
					0.2506617307662964,
					1
				],
				"metallicFactor":0,
				"roughnessFactor":0.5
			}
		},
		{
			"doubleSided":true,
			"extensions":{
				"KHR_materials_specular":{
					"specularColorFactor":[
						0,
						0,
						0
					]
				},
				"KHR_materials_ior":{
					"ior":0
				}
			},
			"name":"TQ_ARD_edge",
			"pbrMetallicRoughness":{
				"baseColorTexture":{
					"index":1
				},
				"metallicFactor":0,
				"roughnessFactor":0.5
			}
		},
		{
			"doubleSided":true,
			"extensions":{
				"KHR_materials_specular":{
					"specularColorFactor":[
						0,
						0,
						0
					]
				},
				"KHR_materials_ior":{
					"ior":0
				}
			},
			"name":"TQ_ARD_front.001",
			"pbrMetallicRoughness":{
				"baseColorTexture":{
					"index":2
				},
				"metallicFactor":0,
				"roughnessFactor":0.5
			}
		},
		{
			"doubleSided":true,
			"extensions":{
				"KHR_materials_specular":{
					"specularColorFactor":[
						0,
						0,
						0
					]
				},
				"KHR_materials_ior":{
					"ior":0
				}
			},
			"name":"TQ_ARD_back.001",
			"pbrMetallicRoughness":{
				"baseColorFactor":[
					0.996078372001648,
					0.9019607901573181,
					0.6627451181411743,
					1
				],
				"metallicFactor":0,
				"roughnessFactor":0.5
			}
		},
		{
			"doubleSided":true,
			"extensions":{
				"KHR_materials_specular":{
					"specularColorFactor":[
						0,
						0,
						0
					]
				},
				"KHR_materials_ior":{
					"ior":0
				}
			},
			"name":"TQ_ARD_edge.001",
			"pbrMetallicRoughness":{
				"baseColorTexture":{
					"index":3
				},
				"metallicFactor":0,
				"roughnessFactor":0.5
			}
		}
	],
	"meshes":[
		{
			"name":"TQ_ARD-geom",
			"primitives":[
				{
					"attributes":{
						"POSITION":0,
						"NORMAL":1,
						"TEXCOORD_0":2
					},
					"indices":3,
					"material":0
				},
				{
					"attributes":{
						"POSITION":4,
						"NORMAL":5,
						"TEXCOORD_0":6
					},
					"indices":7,
					"material":1
				},
				{
					"attributes":{
						"POSITION":8,
						"NORMAL":9,
						"TEXCOORD_0":10
					},
					"indices":11,
					"material":2
				}
			]
		},
		{
			"name":"TQ_ARD-geom.001",
			"primitives":[
				{
					"attributes":{
						"POSITION":12,
						"NORMAL":13,
						"TEXCOORD_0":14
					},
					"indices":15,
					"material":3
				},
				{
					"attributes":{
						"POSITION":16,
						"NORMAL":17,
						"TEXCOORD_0":18
					},
					"indices":19,
					"material":4
				},
				{
					"attributes":{
						"POSITION":20,
						"NORMAL":21,
						"TEXCOORD_0":22
					},
					"indices":23,
					"material":5
				}
			]
		}
	],
	"textures":[
		{
			"sampler":0,
			"source":0
		},
		{
			"sampler":0,
			"source":1
		},
		{
			"sampler":0,
			"source":0
		},
		{
			"sampler":0,
			"source":1
		}
	],
	"images":[
		{
			"bufferView":4,
			"mimeType":"image/jpeg",
			"name":"2"
		},
		{
			"bufferView":13,
			"mimeType":"image/png",
			"name":"TQ_ARD-I1.png"
		}
	],
	"accessors":[
		{
			"bufferView":0,
			"componentType":5126,
			"count":1270,
			"max":[
				0.14126810431480408,
				0.11790573596954346,
				0.12537892162799835
			],
			"min":[
				-0.12746714055538177,
				-0.1362706869840622,
				-0.15870951116085052
			],
			"type":"VEC3"
		},
		{
			"bufferView":1,
			"componentType":5126,
			"count":1270,
			"type":"VEC3"
		},
		{
			"bufferView":2,
			"componentType":5126,
			"count":1270,
			"type":"VEC2"
		},
		{
			"bufferView":3,
			"componentType":5123,
			"count":3378,
			"type":"SCALAR"
		},
		{
			"bufferView":5,
			"componentType":5126,
			"count":1126,
			"max":[
				0.13927061855793,
				0.11631831526756287,
				0.12537892162799835
			],
			"min":[
				-0.125261589884758,
				-0.13468311727046967,
				-0.15692512691020966
			],
			"type":"VEC3"
		},
		{
			"bufferView":6,
			"componentType":5126,
			"count":1126,
			"type":"VEC3"
		},
		{
			"bufferView":7,
			"componentType":5126,
			"count":1126,
			"type":"VEC2"
		},
		{
			"bufferView":8,
			"componentType":5123,
			"count":3378,
			"type":"SCALAR"
		},
		{
			"bufferView":9,
			"componentType":5126,
			"count":1737,
			"max":[
				0.14126810431480408,
				0.11790570616722107,
				0.12537892162799835
			],
			"min":[
				-0.12746714055538177,
				-0.1362706869840622,
				-0.15870951116085052
			],
			"type":"VEC3"
		},
		{
			"bufferView":10,
			"componentType":5126,
			"count":1737,
			"type":"VEC3"
		},
		{
			"bufferView":11,
			"componentType":5126,
			"count":1737,
			"type":"VEC2"
		},
		{
			"bufferView":12,
			"componentType":5123,
			"count":3702,
			"type":"SCALAR"
		},
		{
			"bufferView":14,
			"componentType":5126,
			"count":1231,
			"max":[
				0.1296716034412384,
				0.11790573596954346,
				0.12615811824798584
			],
			"min":[
				-0.0668773204088211,
				-0.1362706869840622,
				-0.15793031454086304
			],
			"type":"VEC3"
		},
		{
			"bufferView":15,
			"componentType":5126,
			"count":1231,
			"type":"VEC3"
		},
		{
			"bufferView":16,
			"componentType":5126,
			"count":1231,
			"type":"VEC2"
		},
		{
			"bufferView":17,
			"componentType":5123,
			"count":3378,
			"type":"SCALAR"
		},
		{
			"bufferView":18,
			"componentType":5126,
			"count":1092,
			"max":[
				0.12767411768436432,
				0.11631831526756287,
				0.12615811824798584
			],
			"min":[
				-0.06445982307195663,
				-0.13468311727046967,
				-0.15614593029022217
			],
			"type":"VEC3"
		},
		{
			"bufferView":19,
			"componentType":5126,
			"count":1092,
			"type":"VEC3"
		},
		{
			"bufferView":20,
			"componentType":5126,
			"count":1092,
			"type":"VEC2"
		},
		{
			"bufferView":21,
			"componentType":5123,
			"count":3378,
			"type":"SCALAR"
		},
		{
			"bufferView":22,
			"componentType":5126,
			"count":1714,
			"max":[
				0.1296716034412384,
				0.11790570616722107,
				0.12615811824798584
			],
			"min":[
				-0.0668773204088211,
				-0.1362706869840622,
				-0.15793031454086304
			],
			"type":"VEC3"
		},
		{
			"bufferView":23,
			"componentType":5126,
			"count":1714,
			"type":"VEC3"
		},
		{
			"bufferView":24,
			"componentType":5126,
			"count":1714,
			"type":"VEC2"
		},
		{
			"bufferView":25,
			"componentType":5123,
			"count":3702,
			"type":"SCALAR"
		}
	],
	"bufferViews":[
		{
			"buffer":0,
			"byteLength":15240,
			"byteOffset":0,
			"target":34962
		},
		{
			"buffer":0,
			"byteLength":15240,
			"byteOffset":15240,
			"target":34962
		},
		{
			"buffer":0,
			"byteLength":10160,
			"byteOffset":30480,
			"target":34962
		},
		{
			"buffer":0,
			"byteLength":6756,
			"byteOffset":40640,
			"target":34963
		},
		{
			"buffer":0,
			"byteLength":1015626,
			"byteOffset":47396
		},
		{
			"buffer":0,
			"byteLength":13512,
			"byteOffset":1063024,
			"target":34962
		},
		{
			"buffer":0,
			"byteLength":13512,
			"byteOffset":1076536,
			"target":34962
		},
		{
			"buffer":0,
			"byteLength":9008,
			"byteOffset":1090048,
			"target":34962
		},
		{
			"buffer":0,
			"byteLength":6756,
			"byteOffset":1099056,
			"target":34963
		},
		{
			"buffer":0,
			"byteLength":20844,
			"byteOffset":1105812,
			"target":34962
		},
		{
			"buffer":0,
			"byteLength":20844,
			"byteOffset":1126656,
			"target":34962
		},
		{
			"buffer":0,
			"byteLength":13896,
			"byteOffset":1147500,
			"target":34962
		},
		{
			"buffer":0,
			"byteLength":7404,
			"byteOffset":1161396,
			"target":34963
		},
		{
			"buffer":0,
			"byteLength":767,
			"byteOffset":1168800
		},
		{
			"buffer":0,
			"byteLength":14772,
			"byteOffset":1169568,
			"target":34962
		},
		{
			"buffer":0,
			"byteLength":14772,
			"byteOffset":1184340,
			"target":34962
		},
		{
			"buffer":0,
			"byteLength":9848,
			"byteOffset":1199112,
			"target":34962
		},
		{
			"buffer":0,
			"byteLength":6756,
			"byteOffset":1208960,
			"target":34963
		},
		{
			"buffer":0,
			"byteLength":13104,
			"byteOffset":1215716,
			"target":34962
		},
		{
			"buffer":0,
			"byteLength":13104,
			"byteOffset":1228820,
			"target":34962
		},
		{
			"buffer":0,
			"byteLength":8736,
			"byteOffset":1241924,
			"target":34962
		},
		{
			"buffer":0,
			"byteLength":6756,
			"byteOffset":1250660,
			"target":34963
		},
		{
			"buffer":0,
			"byteLength":20568,
			"byteOffset":1257416,
			"target":34962
		},
		{
			"buffer":0,
			"byteLength":20568,
			"byteOffset":1277984,
			"target":34962
		},
		{
			"buffer":0,
			"byteLength":13712,
			"byteOffset":1298552,
			"target":34962
		},
		{
			"buffer":0,
			"byteLength":7404,
			"byteOffset":1312264,
			"target":34963
		}
	],
	"samplers":[
		{
			"magFilter":9729,
			"minFilter":9987
		}
	],
	"buffers":[
		{
			"byteLength":1319668,
			"uri":"data:application/octet-stream;base64,"
		}
	]
}
